<?xml version="1.0" encoding="UTF-8" standalone="no"?>
<!-- Created with Inkscape (http://www.inkscape.org/) -->

<svg
   xmlns:dc="http://purl.org/dc/elements/1.1/"
   xmlns:cc="http://creativecommons.org/ns#"
   xmlns:rdf="http://www.w3.org/1999/02/22-rdf-syntax-ns#"
   xmlns:svg="http://www.w3.org/2000/svg"
   xmlns="http://www.w3.org/2000/svg"
   xmlns:sodipodi="http://sodipodi.sourceforge.net/DTD/sodipodi-0.dtd"
   xmlns:inkscape="http://www.inkscape.org/namespaces/inkscape"
   width="174.49333mm"
   height="32.382927mm"
   viewBox="0 0 174.49333 32.382927"
   version="1.1"
   id="svg8"
   sodipodi:docname="control.svg"
   inkscape:version="0.92.2 (unknown)">
  <defs
     id="defs2">
    <marker
       inkscape:stockid="Arrow1Lstart"
       orient="auto"
       refY="0"
       refX="0"
       id="marker4930"
       style="overflow:visible"
       inkscape:isstock="true">
      <path
         id="path4928"
         d="M 0,0 5,-5 -12.5,0 5,5 Z"
         style="fill:#000000;fill-opacity:1;fill-rule:evenodd;stroke:#000000;stroke-width:1.00000003pt;stroke-opacity:1"
         transform="matrix(0.8,0,0,0.8,10,0)"
         inkscape:connector-curvature="0" />
    </marker>
    <marker
       inkscape:stockid="Arrow1Lstart"
       orient="auto"
       refY="0"
       refX="0"
       id="marker4842"
       style="overflow:visible"
       inkscape:isstock="true">
      <path
         id="path4840"
         d="M 0,0 5,-5 -12.5,0 5,5 Z"
         style="fill:#000000;fill-opacity:1;fill-rule:evenodd;stroke:none;stroke-width:1.00000003pt;stroke-opacity:1"
         transform="matrix(0.8,0,0,0.8,10,0)"
         inkscape:connector-curvature="0" />
    </marker>
    <marker
       inkscape:stockid="Arrow1Lstart"
       orient="auto"
       refY="0"
       refX="0"
       id="Arrow1Lstart"
       style="overflow:visible"
       inkscape:isstock="true">
      <path
         id="path4532"
         d="M 0,0 5,-5 -12.5,0 5,5 Z"
         style="fill:#000000;fill-opacity:1;fill-rule:evenodd;stroke:none;stroke-width:1.00000003pt;stroke-opacity:1"
         transform="matrix(0.8,0,0,0.8,10,0)"
         inkscape:connector-curvature="0" />
    </marker>
    <marker
       inkscape:stockid="Arrow1Lend"
       orient="auto"
       refY="0"
       refX="0"
       id="Arrow1Lend"
       style="overflow:visible"
       inkscape:isstock="true">
      <path
         id="path4535"
         d="M 0,0 5,-5 -12.5,0 5,5 Z"
         style="fill:#000000;fill-opacity:1;fill-rule:evenodd;stroke:none;stroke-width:1.00000003pt;stroke-opacity:1"
         transform="matrix(-0.8,0,0,-0.8,-10,0)"
         inkscape:connector-curvature="0" />
    </marker>
    <inkscape:path-effect
       effect="powerstroke"
       id="path-effect36"
       is_visible="true"
       offset_points="0,0.13229166"
       sort_points="true"
       interpolator_type="CubicBezierJohan"
       interpolator_beta="0.2"
       start_linecap_type="zerowidth"
       linejoin_type="extrp_arc"
       miter_limit="4"
       end_linecap_type="zerowidth" />
    <clipPath
       id="clipPath5208"
       clipPathUnits="userSpaceOnUse">
      <path
         inkscape:connector-curvature="0"
         id="path5206"
         d="M 0,2048 H 2732 V 0 H 0 Z" />
    </clipPath>
    <clipPath
       id="clipPath5272"
       clipPathUnits="userSpaceOnUse">
      <path
         inkscape:connector-curvature="0"
         id="path5270"
         d="M 0,2048 H 2732 V 0 H 0 Z" />
    </clipPath>
    <marker
       inkscape:stockid="Arrow1Lstart"
       orient="auto"
       refY="0"
       refX="0"
       id="marker4930-3"
       style="overflow:visible"
       inkscape:isstock="true">
      <path
         inkscape:connector-curvature="0"
         id="path4928-5"
         d="M 0,0 5,-5 -12.5,0 5,5 Z"
         style="fill:#000000;fill-opacity:1;fill-rule:evenodd;stroke:#000000;stroke-width:1.00000003pt;stroke-opacity:1"
         transform="matrix(0.8,0,0,0.8,10,0)" />
    </marker>
    <inkscape:path-effect
       effect="powerstroke"
       id="path-effect36-6"
       is_visible="true"
       offset_points="0,0.13229166"
       sort_points="true"
       interpolator_type="CubicBezierJohan"
       interpolator_beta="0.2"
       start_linecap_type="zerowidth"
       linejoin_type="extrp_arc"
       miter_limit="4"
       end_linecap_type="zerowidth" />
    <clipPath
       id="clipPath6657"
       clipPathUnits="userSpaceOnUse">
      <path
         inkscape:connector-curvature="0"
         id="path6655"
         d="M 0,2048 H 2732 V 0 H 0 Z" />
    </clipPath>
    <clipPath
       id="clipPath6725"
       clipPathUnits="userSpaceOnUse">
      <path
         inkscape:connector-curvature="0"
         id="path6723"
         d="M 0,2048 H 2732 V 0 H 0 Z" />
    </clipPath>
    <marker
       inkscape:stockid="Arrow1Lstart"
       orient="auto"
       refY="0"
       refX="0"
       id="marker4930-3-9"
       style="overflow:visible"
       inkscape:isstock="true">
      <path
         inkscape:connector-curvature="0"
         id="path4928-5-1"
         d="M 0,0 5,-5 -12.5,0 5,5 Z"
         style="fill:#000000;fill-opacity:1;fill-rule:evenodd;stroke:#000000;stroke-width:1.00000003pt;stroke-opacity:1"
         transform="matrix(0.8,0,0,0.8,10,0)" />
    </marker>
    <inkscape:path-effect
       effect="powerstroke"
       id="path-effect36-6-2"
       is_visible="true"
       offset_points="0,0.13229166"
       sort_points="true"
       interpolator_type="CubicBezierJohan"
       interpolator_beta="0.2"
       start_linecap_type="zerowidth"
       linejoin_type="extrp_arc"
       miter_limit="4"
       end_linecap_type="zerowidth" />
    <clipPath
       id="clipPath7391"
       clipPathUnits="userSpaceOnUse">
      <path
         inkscape:connector-curvature="0"
         id="path7389"
         d="M 0,2048 H 2732 V 0 H 0 Z" />
    </clipPath>
    <clipPath
       id="clipPath7475"
       clipPathUnits="userSpaceOnUse">
      <path
         inkscape:connector-curvature="0"
         id="path7473"
         d="M 0,2048 H 2732 V 0 H 0 Z" />
    </clipPath>
    <marker
       inkscape:stockid="Arrow1Lstart"
       orient="auto"
       refY="0"
       refX="0"
       id="marker4930-3-0"
       style="overflow:visible"
       inkscape:isstock="true">
      <path
         inkscape:connector-curvature="0"
         id="path4928-5-9"
         d="M 0,0 5,-5 -12.5,0 5,5 Z"
         style="fill:#000000;fill-opacity:1;fill-rule:evenodd;stroke:#000000;stroke-width:1.00000003pt;stroke-opacity:1"
         transform="matrix(0.8,0,0,0.8,10,0)" />
    </marker>
    <inkscape:path-effect
       effect="powerstroke"
       id="path-effect36-6-3"
       is_visible="true"
       offset_points="0,0.13229166"
       sort_points="true"
       interpolator_type="CubicBezierJohan"
       interpolator_beta="0.2"
       start_linecap_type="zerowidth"
       linejoin_type="extrp_arc"
       miter_limit="4"
       end_linecap_type="zerowidth" />
    <clipPath
       id="clipPath8165"
       clipPathUnits="userSpaceOnUse">
      <path
         inkscape:connector-curvature="0"
         id="path8163"
         d="M 0,2048 H 2732 V 0 H 0 Z" />
    </clipPath>
    <clipPath
       id="clipPath8201"
       clipPathUnits="userSpaceOnUse">
      <path
         inkscape:connector-curvature="0"
         id="path8199"
         d="M 0,2048 H 2732 V 0 H 0 Z" />
    </clipPath>
  </defs>
  <sodipodi:namedview
     id="base"
     pagecolor="#ffffff"
     bordercolor="#666666"
     borderopacity="1.0"
     inkscape:pageopacity="0.0"
     inkscape:pageshadow="2"
     inkscape:zoom="0.7"
     inkscape:cx="500.7567"
     inkscape:cy="346.26058"
     inkscape:document-units="mm"
     inkscape:current-layer="layer1"
     showgrid="false"
     inkscape:window-width="1920"
     inkscape:window-height="1017"
     inkscape:window-x="0"
     inkscape:window-y="30"
     inkscape:window-maximized="1"
     fit-margin-top="0"
     fit-margin-left="0"
     fit-margin-right="0"
     fit-margin-bottom="0" />
  <metadata
     id="metadata5">
    <rdf:RDF>
      <cc:Work
         rdf:about="">
        <dc:format>image/svg+xml</dc:format>
        <dc:type
           rdf:resource="http://purl.org/dc/dcmitype/StillImage" />
        <dc:title></dc:title>
      </cc:Work>
    </rdf:RDF>
  </metadata>
  <g
     inkscape:label="Layer 1"
     inkscape:groupmode="layer"
     id="layer1"
     transform="translate(-25.880148,-3.9580435)">
    <text
       xml:space="preserve"
       style="font-style:normal;font-weight:normal;line-height:1.25;font-family:sans-serif;letter-spacing:0px;word-spacing:0px;baseline-shift:baseline;fill:#000000;fill-opacity:1;stroke:none;stroke-width:0.26458332"
       x="28.348215"
       y="27.880951"
       id="text12"><tspan
         sodipodi:role="line"
         id="tspan10"
         x="28.348215"
         y="27.880951"
         style="baseline-shift:baseline;stroke-width:0.26458332">g<tspan
   style="font-style:italic;font-size:64.99999762%;baseline-shift:sub"
   id="tspan14">A</tspan></tspan></text>
    <text
       xml:space="preserve"
       style="font-style:normal;font-weight:normal;font-size:10.58333302px;line-height:1.25;font-family:sans-serif;letter-spacing:0px;word-spacing:0px;fill:#000000;fill-opacity:1;stroke:none;stroke-width:0.26458332"
       x="112.25893"
       y="101.96429"
       id="text24"><tspan
         sodipodi:role="line"
         id="tspan22"
         x="112.25893"
         y="111.49727"
         style="stroke-width:0.26458332" /></text>
    <path
       style="fill:#000000;fill-rule:nonzero;stroke:#000000;stroke-width:0.26499999;stroke-linecap:butt;stroke-linejoin:miter;stroke-miterlimit:4;stroke-dasharray:none;stroke-opacity:1;marker-end:url(#marker4930);paint-order:fill markers stroke"
       d="m 63.119955,26.898214 c 0,0 -0.0021,-0.132274 -0.0021,-0.132274 -2.343453,0.0378 -9.371678,0.283465 -11.715131,0.321263 2.343453,-0.0378 9.375945,-0.01892 11.719397,-0.05672 0,0 -0.0021,-0.132274 -0.0021,-0.132274 z"
       id="path34"
       inkscape:connector-curvature="0"
       inkscape:path-effect="#path-effect36"
       inkscape:original-d="M 63.119955,26.898214 51.402691,27.087203" />
    <g
       transform="matrix(0.02778765,0,0,-0.02778765,56.199592,59.642121)"
       inkscape:label="Project - Drawing 1_5"
       id="g5200">
      <g
         id="g5202">
        <g
           clip-path="url(#clipPath5208)"
           id="g5204">
          <g
             transform="translate(1934.4727,1869.4727)"
             id="g5210">
            <path
               inkscape:connector-curvature="0"
               id="path5212"
               style="fill:#e74c3c;fill-opacity:1;fill-rule:nonzero;stroke:none"
               d="m 0,0 c -2.895,-2.895 -4.539,-6.867 -4.539,-10.961 0.184,-1.375 0.367,-2.746 0.555,-4.121 0.734,-2.625 2.062,-4.906 3.984,-6.84 44.625,-35.91 89.25,-71.816 133.871,-107.726 46.93,-37.774 93.867,-75.536 140.801,-113.305 23.383,-18.82 46.773,-37.637 70.156,-56.461 1.047,-0.805 2.094,-1.613 3.137,-2.422 2.418,-1.402 5.027,-2.109 7.824,-2.117 4.094,0 8.066,1.648 10.961,4.539 2.895,2.894 4.539,6.867 4.539,10.961 -0.184,1.375 -0.367,2.746 -0.555,4.121 -0.734,2.625 -2.062,4.906 -3.984,6.84 -47.609,38.32 -95.23,76.629 -142.84,114.945 -46.586,37.492 -93.176,74.984 -139.765,112.473 C 63.402,-33.383 42.664,-16.691 21.922,0 20.875,0.805 19.828,1.613 18.785,2.422 16.367,3.824 13.758,4.531 10.961,4.539 6.867,4.539 2.895,2.891 0,0" />
          </g>
          <g
             transform="translate(1957.6553,1576.145)"
             id="g5214">
            <path
               inkscape:connector-curvature="0"
               id="path5216"
               style="fill:#e74c3c;fill-opacity:1;fill-rule:nonzero;stroke:none"
               d="m 0,0 c -8.449,0.004 -15.5,-7.055 -15.5,-15.5 0,-8.453 7.051,-15.496 15.5,-15.5 6.633,-0.004 13.27,-0.008 19.902,-0.012 0.05,0 0.102,0.001 0.152,0.001 57.043,-0.03 114.09,-0.055 171.133,-0.091 43.591,-0.022 87.175,-0.041 130.765,-0.066 2.133,-0.004 4.266,-0.004 6.4,-0.004 8.449,-0.004 15.5,7.055 15.5,15.5 0,8.453 -7.051,15.496 -15.5,15.5 -2.119,10e-4 -4.234,0.003 -6.351,0.004 -0.095,0 -0.189,0 -0.282,0 h -0.034 C 260.812,-0.134 199.938,-0.101 139.066,-0.074 92.711,-0.051 46.355,-0.027 0,0" />
          </g>
          <g
             transform="translate(2343.8428,1617.2275)"
             id="g5218">
            <path
               inkscape:connector-curvature="0"
               id="path5220"
               style="fill:#e74c3c;fill-opacity:1;fill-rule:nonzero;stroke:none"
               d="m 0,0 c -2.625,-0.734 -4.906,-2.063 -6.84,-3.984 -46.367,-39.809 -92.734,-79.621 -139.094,-119.438 -48.757,-41.871 -97.519,-83.734 -146.281,-125.601 -46.153,-39.631 -92.312,-79.268 -138.469,-118.899 -0.314,-0.232 -0.621,-0.477 -0.92,-0.734 -0.336,-0.284 -0.664,-0.583 -0.982,-0.899 -0.048,-0.041 -0.096,-0.082 -0.143,-0.123 -0.106,-0.092 -0.21,-0.18 -0.317,-0.272 -0.168,-0.144 -0.337,-0.288 -0.505,-0.433 -2.992,-2.57 -4.539,-7.129 -4.539,-10.961 0,-4.093 1.649,-8.066 4.539,-10.961 2.895,-2.894 6.867,-4.539 10.961,-4.539 1.375,0.184 2.746,0.371 4.121,0.555 2.308,0.645 4.35,1.75 6.123,3.313 0.339,0.285 0.667,0.585 0.987,0.902 47.515,40.797 95.027,81.597 142.543,122.398 48.754,41.864 97.511,83.723 146.261,125.59 45.879,39.395 91.754,78.789 137.637,118.18 2.992,2.57 4.539,7.129 4.539,10.961 0,4.093 -1.648,8.066 -4.539,10.961 C 12.188,-1.09 8.215,0.555 4.121,0.555 2.746,0.371 1.375,0.184 0,0" />
          </g>
          <g
             transform="translate(1567.5566,1608.4409)"
             id="g5222">
            <path
               inkscape:connector-curvature="0"
               id="path5224"
               style="fill:#e74c3c;fill-opacity:1;fill-rule:nonzero;stroke:none"
               d="m 0,0 c -2.895,-2.895 -4.539,-6.863 -4.539,-10.961 0,-4.094 1.644,-8.066 4.539,-10.957 1.047,-0.809 2.09,-1.617 3.137,-2.426 2.418,-1.402 5.023,-2.105 7.824,-2.117 l 10.851,-0.914 c 3.918,-0.332 8.27,1.844 10.961,4.539 2.895,2.895 4.54,6.863 4.54,10.961 0,4.094 -1.645,8.066 -4.54,10.957 -1.046,0.809 -2.089,1.617 -3.136,2.426 -2.418,1.402 -5.024,2.105 -7.825,2.117 L 10.961,4.539 C 10.694,4.562 10.426,4.573 10.155,4.573 6.458,4.573 2.508,2.512 0,0" />
          </g>
          <g
             transform="translate(1538.8916,1610.8633)"
             id="g5226">
            <path
               inkscape:connector-curvature="0"
               id="path5228"
               style="fill:#e74c3c;fill-opacity:1;fill-rule:nonzero;stroke:none"
               d="m 0,0 c -2.895,-2.895 -4.539,-6.867 -4.539,-10.961 0,-4.094 1.644,-8.066 4.539,-10.961 1.047,-0.805 2.09,-1.613 3.137,-2.422 2.318,-1.344 4.813,-2.05 7.48,-2.112 0.732,-0.106 1.478,-0.161 2.237,-0.165 61.605,-5.2 123.206,-10.405 184.81,-15.613 62.457,-5.282 124.914,-10.551 187.371,-15.832 0.822,-0.07 1.646,-0.139 2.468,-0.208 0.851,-0.144 1.723,-0.218 2.614,-0.222 2.149,-0.18 4.297,-0.363 6.445,-0.543 3.918,-0.332 8.266,1.848 10.961,4.539 2.895,2.895 4.539,6.867 4.539,10.961 0,4.094 -1.644,8.066 -4.539,10.961 -1.046,0.808 -2.089,1.613 -3.136,2.422 -2.418,1.402 -5.028,2.109 -7.825,2.117 C 334.82,-22.82 273.074,-17.605 211.328,-12.391 154.376,-7.577 97.425,-2.767 40.473,2.046 39.614,2.192 38.736,2.267 37.84,2.27 30.433,2.896 23.029,3.521 15.626,4.147 14.778,4.29 13.911,4.363 13.025,4.367 12.979,4.371 12.933,4.375 12.887,4.379 12.844,4.383 12.802,4.386 12.759,4.389 12.596,4.402 12.433,4.415 12.27,4.429 11.833,4.466 11.397,4.502 10.961,4.539 10.694,4.562 10.426,4.573 10.155,4.573 6.459,4.573 2.512,2.512 0,0" />
          </g>
          <g
             transform="translate(1911.1367,1842.6274)"
             id="g5230">
            <path
               inkscape:connector-curvature="0"
               id="path5232"
               style="fill:#e74c3c;fill-opacity:1;fill-rule:nonzero;stroke:none"
               d="m 0,0 c 0.782,-18.152 1.564,-36.3 2.352,-54.448 0.001,-0.04 0.002,-0.079 0.003,-0.118 0,-0.02 0,-0.04 0.002,-0.06 2.567,-59.373 5.124,-118.755 7.694,-178.128 1.953,-45.223 3.902,-90.445 5.855,-135.668 0.184,-4.172 1.547,-7.961 4.543,-10.957 2.891,-2.894 6.863,-4.543 10.957,-4.543 8.176,0 15.867,7.055 15.5,15.5 -2.648,61.352 -5.297,122.703 -7.945,184.051 -1.869,43.209 -3.73,86.415 -5.598,129.621 -10e-4,0.038 -0.002,0.075 -0.004,0.113 C 32.57,-36.426 31.785,-18.215 31,0 30.82,4.172 29.453,7.961 26.457,10.957 23.566,13.852 19.594,15.5 15.5,15.5 7.324,15.5 -0.367,8.445 0,0" />
          </g>
          <g
             transform="translate(1474.54,1830.7305)"
             id="g5234">
            <path
               inkscape:connector-curvature="0"
               id="path5236"
               style="fill:#e74c3c;fill-opacity:1;fill-rule:nonzero;stroke:none"
               d="m 0,0 c -183.062,-21.52 -366.133,-43.023 -549.195,-64.547 -135.34,-15.91 -270.672,-31.812 -406.008,-47.715 -1.375,-0.187 -2.75,-0.371 -4.121,-0.554 -2.625,-0.739 -4.906,-2.067 -6.84,-3.989 -2.895,-2.89 -4.539,-6.863 -4.539,-10.957 0,-4.097 1.644,-8.066 4.539,-10.961 1.047,-0.808 2.09,-1.617 3.137,-2.425 2.418,-1.403 5.023,-2.106 7.824,-2.114 9.683,1.137 19.371,2.274 29.058,3.414 0.006,0.001 0.011,0.002 0.017,0.002 171.149,20.11 342.296,40.235 513.448,60.346 183.727,21.586 367.453,43.184 551.184,64.777 124.988,14.696 249.98,29.379 374.973,44.071 1.375,0.187 2.75,0.371 4.121,0.554 2.625,0.739 4.906,2.067 6.839,3.989 2.895,2.89 4.54,6.863 4.54,10.957 0,4.097 -1.645,8.066 -4.54,10.961 -1.046,0.808 -2.089,1.617 -3.136,2.425 -2.418,1.403 -5.024,2.106 -7.824,2.114 C 342.32,40.23 171.156,20.121 0,0" />
          </g>
          <g
             transform="translate(478.5498,1695.77)"
             id="g5238">
            <path
               inkscape:connector-curvature="0"
               id="path5240"
               style="fill:#e74c3c;fill-opacity:1;fill-rule:nonzero;stroke:none"
               d="m 0,0 c -3.871,-1.066 -7.234,-3.656 -9.262,-7.121 -2.097,-3.582 -2.664,-7.945 -1.562,-11.945 0.519,-1.235 1.039,-2.469 1.562,-3.704 1.379,-2.328 3.231,-4.183 5.559,-5.558 48.383,-36.727 96.758,-73.461 145.137,-110.188 49.261,-37.39 98.515,-74.793 147.777,-112.191 49.851,-37.84 99.695,-75.684 149.543,-113.527 10.008,-7.598 20.019,-15.2 30.027,-22.797 1.235,-0.524 2.469,-1.043 3.703,-1.563 2.746,-0.738 5.496,-0.738 8.243,0 3.871,1.067 7.234,3.657 9.261,7.121 2.098,3.582 2.664,7.946 1.563,11.946 -0.52,1.234 -1.039,2.468 -1.563,3.703 -1.379,2.328 -3.23,4.183 -5.558,5.558 -48.582,36.883 -97.168,73.762 -145.746,110.649 -48.872,37.109 -97.75,74.207 -146.622,111.312 -49.781,37.797 -99.566,75.59 -149.347,113.383 -10.258,7.785 -20.512,15.574 -30.77,23.36 C 10.711,-1.039 9.477,-0.52 8.242,0 6.869,0.369 5.495,0.554 4.121,0.554 2.747,0.554 1.373,0.369 0,0" />
          </g>
          <g
             transform="translate(1468.5781,1638.1426)"
             id="g5242">
            <path
               inkscape:connector-curvature="0"
               id="path5244"
               style="fill:#e74c3c;fill-opacity:1;fill-rule:nonzero;stroke:none"
               d="m 0,0 c -57.52,-26.977 -115.043,-53.961 -172.562,-80.941 -59,-27.672 -117.997,-55.344 -176.997,-83.016 -28.626,-13.43 -57.251,-26.855 -85.88,-40.284 -0.875,-0.317 -1.727,-0.716 -2.557,-1.196 l -15.035,-7.055 c -3.477,-1.629 -6.137,-5.684 -7.121,-9.262 -1.106,-4 -0.535,-8.363 1.562,-11.945 2.028,-3.465 5.387,-6.055 9.262,-7.121 1.375,-0.184 2.746,-0.371 4.121,-0.555 2.797,0.008 5.406,0.715 7.82,2.117 5.016,2.352 10.028,4.703 15.039,7.051 0.063,0.029 0.125,0.06 0.187,0.09 53.562,25.123 107.127,50.243 160.688,75.367 58.887,27.625 117.778,55.246 176.668,82.867 33.485,15.703 66.969,31.41 100.453,47.117 3.477,1.629 6.137,5.684 7.122,9.262 1.105,4 0.535,8.363 -1.563,11.945 C 19.18,-2.094 15.82,0.496 11.945,1.562 10.57,1.746 9.199,1.934 7.824,2.117 5.027,2.109 2.418,1.402 0,0" />
          </g>
          <g
             transform="translate(950.9126,1394.5801)"
             id="g5246">
            <path
               inkscape:connector-curvature="0"
               id="path5248"
               style="fill:#e74c3c;fill-opacity:1;fill-rule:nonzero;stroke:none"
               d="m 0,0 c -3.465,-2.027 -6.059,-5.391 -7.125,-9.266 -1.102,-4 -0.531,-8.363 1.563,-11.941 1.89,-3.227 5.472,-6.41 9.265,-7.125 115.414,-21.707 230.832,-43.422 346.25,-65.129 116.234,-21.859 232.468,-43.726 348.699,-65.59 81.785,-15.381 163.568,-30.763 245.352,-46.148 0.132,-0.025 0.263,-0.05 0.394,-0.074 0.418,-0.079 0.829,-0.156 1.246,-0.235 1.371,-0.183 2.746,-0.367 4.117,-0.554 2.801,0.011 5.406,0.714 7.824,2.117 3.465,2.027 6.059,5.39 7.125,9.265 1.102,4 0.532,8.364 -1.562,11.942 -1.891,3.226 -5.473,6.41 -9.266,7.125 -0.564,0.106 -1.129,0.212 -1.694,0.319 -0.133,0.025 -0.266,0.05 -0.399,0.075 -0.004,0.001 -0.008,0.002 -0.013,0.002 C 839.553,-154.107 727.324,-133 615.101,-111.891 497.472,-89.766 379.844,-67.637 262.215,-45.516 178.793,-29.824 95.367,-14.129 11.941,1.562 10.57,1.746 9.195,1.93 7.824,2.117 5.023,2.105 2.418,1.402 0,0" />
          </g>
          <g
             transform="translate(1974.7979,1235.02)"
             id="g5250">
            <path
               inkscape:connector-curvature="0"
               id="path5252"
               style="fill:#e74c3c;fill-opacity:1;fill-rule:nonzero;stroke:none"
               d="M 0,0 C -116.73,-21.027 -233.461,-42.051 -350.191,-63.074 L -705.117,-127 c -61.743,-11.12 -123.485,-22.239 -185.231,-33.361 -0.91,-0.083 -1.82,-0.246 -2.73,-0.491 -13.533,-2.437 -27.07,-4.877 -40.604,-7.314 -0.911,-0.082 -1.821,-0.246 -2.732,-0.49 -0.098,-0.019 -0.196,-0.036 -0.294,-0.054 -0.34,-0.062 -0.682,-0.123 -1.022,-0.185 -3.786,-0.683 -7.391,-3.917 -9.266,-7.125 -2.094,-3.578 -2.664,-7.941 -1.563,-11.941 1.067,-3.875 3.657,-7.234 7.125,-9.266 1.235,-0.519 2.469,-1.039 3.704,-1.562 2.476,-0.666 4.952,-0.731 7.428,-0.196 0.603,0.089 1.206,0.215 1.809,0.376 14.554,2.623 29.104,5.243 43.657,7.863 0.055,0.01 0.109,0.02 0.164,0.031 100.944,18.18 201.891,36.36 302.836,54.543 l 354.481,63.844 235.593,42.433 c 3.785,0.684 7.391,3.918 9.266,7.125 2.094,3.579 2.664,7.942 1.562,11.942 C 18,-6.953 15.41,-3.594 11.941,-1.562 10.707,-1.043 9.473,-0.523 8.238,0 6.865,0.369 5.492,0.554 4.119,0.554 2.746,0.554 1.373,0.369 0,0" />
          </g>
          <g
             transform="translate(438.2109,1320.0869)"
             id="g5254">
            <path
               inkscape:connector-curvature="0"
               id="path5256"
               style="fill:#e74c3c;fill-opacity:1;fill-rule:nonzero;stroke:none"
               d="m 0,0 c -4.211,-7.195 -1.797,-17.074 5.562,-21.207 57.743,-32.434 115.485,-64.871 173.227,-97.305 58.871,-33.066 117.742,-66.136 176.613,-99.207 57.398,-32.239 114.788,-64.476 172.185,-96.715 0.027,-0.015 0.054,-0.031 0.081,-0.046 4.699,-2.641 9.394,-5.278 14.094,-7.918 7.367,-4.137 16.89,-1.817 21.207,5.562 4.211,7.195 1.797,17.074 -5.563,21.208 -2.66,1.493 -5.322,2.988 -7.983,4.483 -0.061,0.036 -0.122,0.071 -0.185,0.106 -58.777,33.012 -117.551,66.027 -176.328,99.043 -58.906,33.09 -117.812,66.18 -176.723,99.269 C 138.395,-60.266 80.598,-27.805 22.809,4.664 22.273,4.961 21.742,5.262 21.207,5.562 18.759,6.937 16.073,7.599 13.419,7.599 8.086,7.599 2.882,4.927 0,0" />
          </g>
          <g
             transform="translate(972.6421,1410.397)"
             id="g5258">
            <path
               inkscape:connector-curvature="0"
               id="path5260"
               style="fill:#e74c3c;fill-opacity:1;fill-rule:nonzero;stroke:none"
               d="m 0,0 c -60.723,-10.563 -121.441,-21.117 -182.16,-31.68 -63.981,-11.133 -127.961,-22.25 -191.945,-33.383 -35.482,-6.172 -70.961,-12.341 -106.442,-18.513 -0.97,-0.076 -1.94,-0.245 -2.91,-0.506 -0.876,-0.152 -1.753,-0.304 -2.629,-0.456 -0.962,-0.076 -1.925,-0.243 -2.888,-0.501 -0.097,-0.017 -0.194,-0.034 -0.292,-0.051 -0.017,-0.003 -0.034,-0.006 -0.052,-0.009 -0.239,-0.042 -0.479,-0.085 -0.717,-0.128 -3.777,-0.656 -7.399,-3.933 -9.266,-7.121 -2.094,-3.582 -2.664,-7.941 -1.562,-11.945 1.066,-3.871 3.66,-7.234 7.125,-9.262 1.234,-0.519 2.468,-1.043 3.703,-1.562 2.382,-0.64 4.765,-0.725 7.148,-0.254 0.62,0.091 1.24,0.22 1.86,0.387 1.937,0.336 3.875,0.675 5.812,1.011 l 0.022,0.005 c 60.567,10.534 121.138,21.066 181.705,31.601 63.508,11.047 127.019,22.09 190.531,33.137 37.066,6.445 74.133,12.89 111.195,19.339 3.778,0.657 7.399,3.934 9.266,7.121 2.094,3.583 2.664,7.942 1.562,11.946 C 18,-6.953 15.406,-3.59 11.941,-1.562 10.707,-1.043 9.473,-0.52 8.238,0 6.865,0.369 5.492,0.554 4.119,0.554 2.746,0.554 1.373,0.369 0,0" />
          </g>
          <g
             transform="translate(948.4014,1395.771)"
             id="g5262">
            <path
               inkscape:connector-curvature="0"
               id="path5264"
               style="fill:#e74c3c;fill-opacity:1;fill-rule:nonzero;stroke:none"
               d="m 0,0 v -187.391 -196.394 -82.207 c 0,-8.449 7.051,-15.5 15.5,-15.5 8.449,0 15.5,7.051 15.5,15.5 V -271.305 -76.281 0 C 31,8.449 23.949,15.5 15.5,15.5 7.051,15.5 0,8.449 0,0" />
          </g>
        </g>
      </g>
      <g
         id="g5266">
        <g
           clip-path="url(#clipPath5272)"
           id="g5268">
          <g
             transform="translate(1930.1865,1330.0356)"
             id="g5274">
            <path
               inkscape:connector-curvature="0"
               id="path5276"
               style="fill:#999999;fill-opacity:1;fill-rule:nonzero;stroke:none"
               d="m 0,0 c -4.706,0 -9.51,-0.259 -14.278,-0.77 -9.93,-1.061 -19.618,-3.182 -28.795,-6.305 -18.094,-6.154 -35.113,-16.497 -49.215,-29.908 -6.56,-6.24 -12.674,-13.471 -18.173,-21.49 -5.083,-7.411 -9.584,-15.869 -13.376,-25.139 -3.52,-8.612 -6.118,-17.827 -7.72,-27.388 -1.606,-9.597 -2.176,-19.273 -1.695,-28.761 0.059,-1.133 0.134,-2.176 0.231,-3.192 l 0.143,-1.065 c 0.21,-0.787 0.58,-1.423 1.109,-1.96 0.172,-0.172 0.361,-0.329 0.56,-0.47 0.548,-5.795 1.483,-11.594 2.777,-17.228 2.113,-9.204 5.357,-18.44 9.642,-27.451 3.853,-8.111 8.889,-16.197 14.966,-24.034 11.701,-15.091 27.048,-27.712 44.383,-36.495 8.525,-4.316 17.688,-7.749 27.236,-10.204 9.239,-2.376 19.049,-3.729 29.158,-4.023 1.177,-0.034 2.357,-0.052 3.534,-0.052 8.188,0 16.694,0.826 25.284,2.454 9.019,1.712 18.288,4.605 27.549,8.599 17.368,7.489 33.348,19.112 46.211,33.611 12.723,14.344 22.4,31.764 27.987,50.375 2.693,8.969 4.455,18.645 5.235,28.76 0.709,9.205 0.338,18.691 -1.133,28.998 -1.313,9.163 -3.754,18.418 -7.255,27.507 -3.501,9.089 -7.989,17.791 -13.341,25.861 -10.661,16.078 -25.07,29.985 -41.67,40.218 -7.923,4.883 -16.729,9.031 -26.174,12.329 -8.642,3.018 -18.191,5.16 -28.382,6.363 C 9.955,-0.29 4.976,0 0,0" />
          </g>
          <g
             transform="translate(2300.4482,1681.2466)"
             id="g5278">
            <path
               inkscape:connector-curvature="0"
               id="path5280"
               style="fill:#999999;fill-opacity:1;fill-rule:nonzero;stroke:none"
               d="m 0,0 c -7.474,0 -15.276,-0.652 -23.192,-1.938 -11.409,-1.855 -23.086,-5.533 -34.706,-10.93 -10.317,-4.786 -20.428,-11.322 -30.053,-19.427 -8.659,-7.295 -16.646,-16.152 -23.737,-26.327 -6.603,-9.473 -12.076,-20.274 -16.266,-32.1 -3.952,-11.163 -6.379,-23.348 -7.212,-36.217 -0.771,-11.932 0.187,-24.342 2.848,-36.886 2.423,-11.439 6.607,-22.905 12.434,-34.08 5.487,-10.516 12.64,-20.537 21.264,-29.784 8.045,-8.624 17.492,-16.295 28.08,-22.798 4.83,-2.969 10.111,-5.708 15.696,-8.141 5.909,-2.571 11.458,-4.572 16.966,-6.119 9.298,-2.609 19.245,-4.135 29.565,-4.535 1.679,-0.064 3.373,-0.096 5.031,-0.096 3.181,0 6.355,0.119 9.431,0.354 1.122,0.086 2.239,0.188 3.36,0.305 10.506,0.75 20.878,2.716 30.83,5.844 11.403,3.583 22.367,8.774 32.585,15.431 20.572,13.396 37.123,32.198 47.862,54.375 10.658,22.014 15.055,46.6 12.717,71.099 -1.193,12.493 -3.996,24.549 -8.329,35.831 -4.321,11.246 -10.128,21.83 -17.259,31.455 -3.81,5.143 -7.928,9.992 -12.239,14.412 -4.143,4.243 -8.818,8.359 -14.294,12.582 -4.646,3.581 -9.576,6.887 -14.654,9.829 -4.925,2.848 -10.492,5.534 -17.017,8.212 -5.323,2.182 -11.081,4.065 -17.114,5.594 -5.534,1.403 -11.592,2.471 -18.526,3.266 C 9.493,-0.266 4.759,0 0,0" />
          </g>
          <g
             transform="translate(1923.0322,1690.2661)"
             id="g5282">
            <path
               inkscape:connector-curvature="0"
               id="path5284"
               style="fill:#999999;fill-opacity:1;fill-rule:nonzero;stroke:none"
               d="m 0,0 c -4.228,0 -8.528,-0.207 -12.786,-0.613 -9.784,-0.931 -19.386,-2.905 -28.537,-5.868 -8.969,-2.902 -17.764,-6.848 -26.139,-11.727 -8.029,-4.675 -15.784,-10.415 -23.049,-17.061 -6.76,-6.183 -13.108,-13.428 -18.869,-21.532 -5.39,-7.585 -10.087,-16.097 -13.962,-25.299 -3.694,-8.771 -6.436,-17.946 -8.152,-27.272 -3.553,-19.327 -2.801,-39.629 2.176,-58.711 2.341,-8.982 5.818,-18.037 10.333,-26.912 4.129,-8.121 9.443,-16.194 15.797,-23.998 5.816,-7.14 12.535,-13.759 19.97,-19.674 7.656,-6.082 15.793,-11.262 24.186,-15.395 8.647,-4.257 17.74,-7.58 27.025,-9.876 9.252,-2.29 19.083,-3.582 29.221,-3.84 1.011,-0.026 2.022,-0.038 3.033,-0.038 8.401,0 17.209,0.888 26.177,2.64 8.993,1.761 17.979,4.616 27.471,8.727 8.478,3.674 16.732,8.412 24.533,14.083 7.741,5.624 14.838,12 21.091,18.95 6.328,7.035 11.951,14.82 16.712,23.139 2.16,3.77 4.186,7.873 6.196,12.544 2.104,4.887 3.8,9.473 5.183,14.021 2.762,9.066 4.547,18.905 5.306,29.244 0.037,0.48 -0.049,0.994 -0.255,1.528 l 0.06,0.804 c 1.344,19.216 -1.632,38.863 -8.611,56.817 -6.947,17.877 -17.787,34.336 -31.349,47.597 -6.52,6.375 -13.938,12.216 -22.049,17.361 -7.715,4.893 -16.342,9.099 -25.639,12.501 -4.316,1.577 -8.967,2.972 -13.821,4.149 -4.503,1.087 -9.287,1.94 -15.056,2.684 C 10.934,-0.346 5.484,0 0,0" />
          </g>
          <g
             transform="translate(1911.8877,2003.9146)"
             id="g5286">
            <path
               inkscape:connector-curvature="0"
               id="path5288"
               style="fill:#999999;fill-opacity:1;fill-rule:nonzero;stroke:none"
               d="m 0,0 v 0 h -0.605 c -8.284,0 -16.909,-0.841 -25.635,-2.5 -8.178,-1.556 -16.394,-4.005 -24.42,-7.282 -8.23,-3.357 -16.008,-7.427 -23.119,-12.099 -7.066,-4.635 -13.8,-10.04 -20.017,-16.063 -5.83,-5.64 -11.382,-12.181 -16.502,-19.443 -4.691,-6.653 -8.82,-13.95 -12.27,-21.689 -3.639,-8.164 -6.452,-16.549 -8.36,-24.924 -1.927,-8.447 -3.034,-17.289 -3.29,-26.279 -0.242,-8.605 0.438,-17.657 2.021,-26.905 1.424,-8.329 3.77,-16.721 6.976,-24.943 3.212,-8.235 7.189,-16.112 11.822,-23.412 4.466,-7.041 9.722,-13.806 15.622,-20.107 5.495,-5.868 11.927,-11.513 19.119,-16.778 6.572,-4.808 13.785,-9.065 21.438,-12.654 7.867,-3.686 16.052,-6.605 24.326,-8.676 6.953,-1.74 14.28,-2.92 21.78,-3.508 3.67,-0.287 7.295,-0.325 10.357,-0.325 L 0,-267.586 c 0.685,0 1.38,0.064 2.053,0.125 l 0.608,0.054 c 0.512,0.042 1.025,0.066 1.537,0.089 0.357,0.017 0.713,0.033 1.068,0.056 1.682,0.107 3.491,0.264 5.692,0.496 0.371,0.047 0.746,0.098 1.121,0.148 0.465,0.129 0.897,0.331 1.282,0.6 6.352,0.646 12.774,1.779 19.082,3.365 15.745,3.952 31.229,11.184 44.778,20.916 6.883,4.948 13.304,10.545 19.083,16.634 5.745,6.057 11.064,12.874 15.809,20.263 4.375,6.82 8.273,14.486 11.583,22.783 3.069,7.692 5.412,15.924 6.97,24.467 1.641,9.009 2.378,17.978 2.191,26.658 -0.183,8.597 -1.234,17.38 -3.121,26.107 -1.737,8.04 -4.372,16.12 -8.055,24.701 -3.198,7.436 -7.259,14.775 -12.072,21.811 -4.798,7.005 -10.267,13.581 -16.255,19.544 -5.822,5.8 -12.463,11.248 -19.74,16.193 -6.765,4.597 -14.142,8.601 -21.923,11.903 -4.399,1.866 -8.505,3.393 -12.555,4.669 -3.919,1.235 -8.077,2.312 -12.361,3.199 C 18.05,-0.991 9.042,-0.047 0,0" />
          </g>
          <g
             transform="translate(1465.8721,1746.2861)"
             id="g5290">
            <path
               inkscape:connector-curvature="0"
               id="path5292"
               style="fill:#999999;fill-opacity:1;fill-rule:nonzero;stroke:none"
               d="m 0,0 c -9.418,0 -19.11,-1.065 -28.807,-3.168 -10.821,-2.346 -21.656,-6.271 -32.206,-11.665 -4.713,-2.405 -9.522,-5.285 -14.294,-8.559 -2.513,-1.73 -4.925,-3.573 -6.747,-4.985 -2.336,-1.811 -4.341,-3.496 -6.129,-5.149 -2.002,-1.851 -3.799,-3.528 -5.528,-5.289 -0.934,-0.957 -1.848,-1.93 -2.754,-2.914 -0.784,-0.849 -1.497,-1.761 -2.16,-2.623 -0.418,-0.491 -0.828,-0.983 -1.234,-1.48 -0.615,-0.736 -1.244,-1.668 -1.253,-2.99 -14.625,-17.343 -24.621,-38.007 -28.906,-59.752 -0.967,-4.896 -1.704,-10.231 -2.25,-16.31 -0.457,-5.097 -0.521,-10.594 -0.195,-16.802 0.584,-11.188 2.647,-22.375 6.129,-33.249 1.628,-5.089 3.7,-10.303 6.333,-15.939 2.317,-4.963 5.091,-9.975 8.242,-14.895 6.068,-9.454 13.359,-18.144 21.67,-25.826 8.26,-7.636 17.508,-14.238 27.486,-19.623 9.824,-5.296 20.5,-9.357 31.733,-12.071 9.943,-2.4 20.278,-3.617 30.719,-3.617 12.562,0 25.056,1.746 37.134,5.187 10.739,3.064 21.247,7.622 31.233,13.548 9.398,5.577 18.216,12.465 26.205,20.475 3.699,3.71 7.339,7.906 11.126,12.829 3.266,4.252 6.319,8.776 9.075,13.446 5.898,10.005 10.5,20.749 13.681,31.932 6.109,21.506 6.587,44.654 1.379,66.943 -5.078,21.75 -16.025,42.33 -31.656,59.516 C 82.709,-26.191 62.858,-13.489 40.62,-6.297 29.888,-2.825 18.287,-0.758 6.141,-0.152 4.104,-0.051 2.037,0 0,0" />
          </g>
          <g
             transform="translate(966.833,1154.4268)"
             id="g5294">
            <path
               inkscape:connector-curvature="0"
               id="path5296"
               style="fill:#999999;fill-opacity:1;fill-rule:nonzero;stroke:none"
               d="m 0,0 v 0 h -0.488 c -6.173,0 -12.837,-0.525 -20.373,-1.605 -13.182,-1.893 -26.517,-6.107 -39.636,-12.525 -11.852,-5.8 -23.119,-13.72 -33.486,-23.54 -9.901,-9.381 -18.377,-20.447 -25.194,-32.89 -3.297,-6.02 -6.3,-12.794 -8.927,-20.134 -2.211,-6.188 -3.989,-12.919 -5.285,-20.005 -2.528,-13.831 -2.932,-27.848 -1.199,-41.663 0.895,-7.137 2.282,-14.075 4.121,-20.619 1.778,-6.324 4.234,-12.879 7.509,-20.04 5.52,-12.087 13.242,-23.634 22.95,-34.32 4.479,-4.936 9.596,-9.704 15.209,-14.169 5.665,-4.508 11.581,-8.537 17.583,-11.977 5.257,-3.01 11.163,-5.801 18.056,-8.532 5.986,-2.371 12.433,-4.333 19.161,-5.833 6.417,-1.434 13.24,-2.406 20.279,-2.886 1.765,-0.119 3.548,-0.174 5.212,-0.215 0.286,-0.007 0.572,-0.01 0.859,-0.01 0.677,0 1.355,0.016 2.032,0.032 0.642,0.016 1.285,0.031 1.929,0.033 3.102,0.011 6.171,0.419 9.048,0.836 6.729,0.483 13.576,1.49 20.349,2.992 13.527,3.002 26.739,8.313 39.269,15.786 5.568,3.324 11.151,7.309 17.067,12.184 4.953,4.08 9.816,8.797 14.455,14.021 9.217,10.384 16.726,22.06 22.317,34.706 2.871,6.479 5.234,13.153 7.024,19.837 1.693,6.299 2.938,13.117 3.805,20.846 1.464,13.031 0.822,26.803 -1.906,40.932 -2.582,13.382 -7.337,26.477 -14.134,38.921 -3.305,6.056 -7.262,12.004 -12.098,18.185 -4.141,5.297 -8.65,10.275 -13.404,14.794 -4.656,4.434 -10.033,8.809 -15.981,13.005 -5.193,3.661 -10.901,7.032 -16.967,10.02 C 46.834,-7.756 33.726,-3.642 20.196,-1.605 13.323,-0.57 6.528,-0.03 0,0" />
          </g>
          <g
             transform="translate(955.0127,1521.6992)"
             id="g5298">
            <path
               inkscape:connector-curvature="0"
               id="path5300"
               style="fill:#999999;fill-opacity:1;fill-rule:nonzero;stroke:none"
               d="m 0,0 c -6.3,0 -12.798,-0.461 -19.314,-1.372 -22.04,-3.065 -43.182,-11.736 -61.138,-25.075 -8.994,-6.683 -17.049,-14.353 -23.939,-22.795 -7.103,-8.698 -13.048,-18.112 -17.673,-27.979 -4.806,-10.266 -8.289,-20.987 -10.353,-31.865 -2.116,-11.17 -2.84,-22.529 -2.152,-33.761 0.671,-10.864 2.644,-21.605 5.864,-31.924 1.493,-4.778 3.425,-9.813 5.907,-15.392 2.071,-4.66 4.579,-9.434 7.453,-14.189 2.619,-4.332 5.668,-8.696 9.595,-13.735 3.041,-3.899 6.52,-7.82 10.34,-11.653 2.718,-2.729 5.774,-5.469 9.083,-8.145 8.369,-7.06 17.363,-13.018 26.732,-17.708 10.182,-5.103 20.941,-8.861 31.975,-11.169 5.406,-1.131 11.281,-1.962 17.463,-2.469 3.335,-0.273 6.772,-0.412 10.215,-0.412 2.157,0 4.364,0.055 6.559,0.162 11.396,0.559 22.643,2.514 33.429,5.813 5.152,1.577 10.514,3.634 16.392,6.289 4.805,2.167 9.683,4.772 14.497,7.743 4.36,2.689 8.925,5.949 13.958,9.966 4.072,3.25 8.012,6.856 12.047,11.024 3.583,3.703 7.09,7.855 11.037,13.067 3.139,4.143 6.07,8.602 8.961,13.634 2.627,4.568 5.095,9.632 7.543,15.482 2.079,4.963 3.889,10.2 5.38,15.567 2.875,10.37 4.458,21.589 4.703,33.347 0.23,11.044 -0.98,22.368 -3.593,33.658 -2.361,10.21 -6.192,20.531 -11.388,30.678 -4.89,9.555 -11.269,18.853 -18.958,27.635 -6.964,7.946 -15.299,15.31 -24.776,21.889 -8.655,6.011 -18.537,11.15 -29.373,15.274 C 36.641,-4.674 25.7,-2.103 13.958,-0.773 9.404,-0.26 4.708,0 0,0" />
          </g>
          <g
             transform="translate(460.9268,1432.0977)"
             id="g5302">
            <path
               inkscape:connector-curvature="0"
               id="path5304"
               style="fill:#999999;fill-opacity:1;fill-rule:nonzero;stroke:none"
               d="m 0,0 c -9.367,0 -18.793,-0.978 -28.018,-2.907 -19.274,-4.027 -37.913,-12.736 -53.902,-25.185 -15.914,-12.389 -29.009,-28.528 -37.871,-46.672 -8.829,-18.069 -13.477,-38.357 -13.442,-58.668 0.019,-10.118 1.236,-20.394 3.618,-30.542 2.235,-9.534 5.745,-19.168 10.434,-28.634 4.251,-8.588 9.804,-17.105 16.505,-25.315 6.081,-7.443 13.217,-14.358 21.209,-20.552 8.224,-6.374 17.081,-11.736 26.326,-15.939 9.588,-4.357 19.589,-7.555 29.725,-9.504 8.29,-1.595 16.803,-2.403 25.301,-2.403 12.273,0 24.453,1.665 36.203,4.949 9.648,2.695 19.206,6.638 28.409,11.72 8.48,4.684 16.704,10.56 24.443,17.466 7.236,6.459 14.029,14.159 20.189,22.885 5.647,7.997 10.57,17.154 14.634,27.217 3.851,9.535 6.552,19.724 8.028,30.283 0.783,5.599 1.234,11.151 1.34,16.502 0.049,2.581 0.011,5.278 -0.113,8.016 -0.067,1.406 -0.164,2.808 -0.274,4.211 -0.051,0.602 -0.105,1.199 -0.172,1.793 -0.093,0.813 -0.267,1.565 -0.451,2.362 l -0.092,0.397 c -0.06,0.266 -0.159,0.534 -0.294,0.795 -0.383,3.4 -0.907,6.878 -1.557,10.334 -1.756,9.328 -4.758,18.884 -8.923,28.404 -3.924,8.978 -8.994,17.641 -15.067,25.749 -5.997,8.009 -12.749,15.232 -20.068,21.466 C 70.819,-18.745 52.391,-9.187 32.827,-4.129 22.237,-1.394 11.193,-0.004 0,0" />
          </g>
          <g
             transform="translate(462.5693,1796.3906)"
             id="g5306">
            <path
               inkscape:connector-curvature="0"
               id="path5308"
               style="fill:#999999;fill-opacity:1;fill-rule:nonzero;stroke:none"
               d="m 0,0 c -8.189,0 -16.597,-0.78 -24.99,-2.317 -5.039,-0.924 -10.022,-2.167 -14.81,-3.695 -4.575,-1.466 -9.282,-3.263 -14.388,-5.497 -18.809,-8.227 -35.812,-21.275 -49.171,-37.733 -6.891,-8.487 -12.68,-17.686 -17.204,-27.342 -4.545,-9.692 -7.903,-19.881 -9.982,-30.284 -1.263,-6.316 -2.071,-12.792 -2.402,-19.247 -0.237,-3.511 -0.318,-7.149 -0.242,-10.813 0.122,-5.899 0.679,-11.957 1.703,-18.521 l -0.019,0.172 c 0.613,-4.238 1.573,-8.406 2.441,-11.954 0.846,-3.453 1.997,-7.19 3.621,-11.763 2.96,-8.321 6.849,-16.491 11.559,-24.283 5.956,-9.656 12.91,-18.382 20.647,-25.944 7.568,-7.399 16.193,-13.978 25.634,-19.555 9.225,-5.452 19.34,-9.809 30.065,-12.951 4.965,-1.45 10.221,-2.616 15.622,-3.465 5.645,-0.888 11.243,-1.436 16.638,-1.629 1.494,-0.054 3.015,-0.081 4.52,-0.081 8.995,0 18.24,0.965 27.479,2.87 4.898,1.009 9.909,2.396 15.318,4.243 4.584,1.563 9.35,3.55 14.997,6.254 9.012,4.318 18.056,10.157 26.881,17.353 7.729,6.303 15.036,13.972 21.72,22.795 12.773,16.852 21.354,36.907 24.814,57.996 3.159,19.225 1.965,39.462 -3.453,58.524 -5.597,19.704 -16.015,38.324 -30.127,53.848 -6.548,7.204 -14.207,13.86 -22.764,19.783 -8.284,5.734 -17.644,10.632 -27.822,14.559 -11.998,4.628 -24.723,7.446 -37.824,8.376 -0.12,0.016 -0.245,0.028 -0.367,0.035 -0.605,0.039 -1.211,0.071 -1.82,0.102 -0.093,0.012 -0.191,0.019 -0.285,0.023 -0.637,0.028 -1.274,0.051 -1.91,0.075 L 3.97,-0.061 3.336,-0.041 2.797,-0.027 2.281,-0.016 H 2.16 C 1.437,-0.004 0.719,0 0,0" />
          </g>
        </g>
      </g>
    </g>
    <text
       xml:space="preserve"
       style="font-style:normal;font-weight:normal;font-size:10.58333302px;line-height:1.25;font-family:sans-serif;letter-spacing:0px;word-spacing:0px;fill:#000000;fill-opacity:1;stroke:none;stroke-width:0.26458332"
       x="90.903275"
       y="33.739578"
       id="text5367"><tspan
         sodipodi:role="line"
         id="tspan5365"
         x="90.903275"
         y="33.739578"
         style="font-style:italic;font-size:64.99999762%;baseline-shift:sub;stroke-width:0.26458332">A</tspan></text>
    <path
       style="fill:#000000;fill-rule:nonzero;stroke:#000000;stroke-width:0.26499999;stroke-linecap:butt;stroke-linejoin:miter;stroke-miterlimit:4;stroke-dasharray:none;stroke-opacity:1;marker-end:url(#marker4930-3);paint-order:fill markers stroke"
       d="m 138.3477,26.142262 c 0,0 -0.002,-0.132274 -0.002,-0.132274 -2.34346,0.0378 -9.37168,0.283465 -11.71513,0.321263 2.34345,-0.0378 9.37594,-0.01892 11.71939,-0.05672 0,0 -0.002,-0.132274 -0.002,-0.132274 z"
       id="path34-2"
       inkscape:connector-curvature="0"
       inkscape:path-effect="#path-effect36-6"
       inkscape:original-d="m 138.3477,26.142262 -11.71726,0.188989" />
    <text
       xml:space="preserve"
       style="font-style:normal;font-weight:normal;font-size:10.58333302px;line-height:1.25;font-family:sans-serif;letter-spacing:0px;word-spacing:0px;fill:#000000;fill-opacity:1;stroke:none;stroke-width:0.26458332"
       x="128.51192"
       y="18.053572"
       id="text6407"><tspan
         sodipodi:role="line"
         x="128.51192"
         y="18.053572"
         style="font-size:4.23333311px;line-height:0;stroke-width:0.26458332"
         id="tspan6583">train</tspan></text>
    <text
       xml:space="preserve"
       style="font-style:normal;font-weight:normal;font-size:10.58333302px;line-height:1.25;font-family:sans-serif;letter-spacing:0px;word-spacing:0px;fill:#000000;fill-opacity:1;stroke:none;stroke-width:0.26458332"
       x="126.05506"
       y="22.589287"
       id="text6618"><tspan
         sodipodi:role="line"
         id="tspan6616"
         x="126.05506"
         y="22.589287"
         style="font-size:4.23333311px;stroke-width:0.26458332">weights</tspan></text>
    <g
       transform="matrix(0.02683217,0,0,-0.02683217,135.04889,59.501325)"
       inkscape:label="Project - Drawing 2_6"
       id="g6649">
      <g
         id="g6651">
        <g
           clip-path="url(#clipPath6657)"
           id="g6653">
          <g
             transform="translate(1829.5635,1879.6191)"
             id="g6659">
            <path
               inkscape:connector-curvature="0"
               id="path6661"
               style="fill:#f8df33;fill-opacity:1;fill-rule:nonzero;stroke:none"
               d="m 0,0 c -0.133,-0.015 -0.268,-0.032 -0.401,-0.049 -0.252,-0.031 -0.505,-0.062 -0.757,-0.093 -0.04,-0.004 -0.08,-0.009 -0.119,-0.014 -0.078,-0.011 -0.158,-0.021 -0.236,-0.032 -142.743,-17.581 -285.486,-35.157 -428.233,-52.742 -159.316,-19.621 -318.625,-39.246 -477.945,-58.863 -117.705,-14.497 -235.407,-28.998 -353.112,-43.492 v 0 c -1.257,-0.155 -2.514,-0.31 -3.772,-0.465 -4.126,-0.508 -8.246,-1.016 -12.372,-1.523 -4.693,-0.579 -9.387,-1.156 -14.082,-1.735 -1.371,-0.183 -2.746,-0.371 -4.121,-0.554 -2.625,-0.735 -4.903,-2.063 -6.84,-3.985 -2.891,-2.894 -4.539,-6.867 -4.539,-10.961 0,-4.094 1.648,-8.066 4.539,-10.961 1.047,-0.808 2.094,-1.617 3.14,-2.422 2.414,-1.402 5.024,-2.109 7.821,-2.117 3.813,0.47 7.619,0.939 11.431,1.408 6.266,0.771 12.531,1.542 18.795,2.315 0,0 0,0 0,0 141.913,17.478 283.822,34.955 425.732,52.433 159.91,19.7 319.812,39.399 479.722,59.086 118.086,14.539 236.168,29.086 354.25,43.629 0.051,0.007 0.103,0.014 0.154,0.021 0.07,0.009 0.141,0.017 0.212,0.026 h 0.013 c 0.106,0.014 0.211,0.028 0.318,0.041 0.133,0.017 0.267,0.033 0.401,0.049 1.371,0.184 2.746,0.371 4.121,0.555 2.625,0.734 4.902,2.066 6.84,3.984 2.891,2.895 4.539,6.867 4.539,10.961 0,4.094 -1.648,8.066 -4.539,10.961 C 9.914,-3.73 8.867,-2.922 7.82,-2.117 5.406,-0.715 2.797,-0.008 0,0" />
          </g>
          <g
             transform="translate(507.0381,1670.9204)"
             id="g6663">
            <path
               inkscape:connector-curvature="0"
               id="path6665"
               style="fill:#f8df33;fill-opacity:1;fill-rule:nonzero;stroke:none"
               d="m 0,0 c -3.875,-1.066 -7.234,-3.66 -9.262,-7.125 -2.097,-3.582 -2.668,-7.941 -1.562,-11.941 0.519,-1.235 1.039,-2.469 1.562,-3.704 1.375,-2.332 3.231,-4.183 5.559,-5.562 4.718,-3.277 9.433,-6.553 14.152,-9.831 0.51,-0.354 1.021,-0.709 1.531,-1.064 0.018,-0.012 0.035,-0.023 0.053,-0.035 45.781,-31.801 91.555,-63.604 137.338,-95.406 52.227,-36.281 104.453,-72.566 156.684,-108.844 51.472,-35.758 102.941,-71.515 154.414,-107.269 7.297,-5.071 14.593,-10.141 21.894,-15.211 3.285,-2.281 8.199,-2.594 11.942,-1.563 3.875,1.067 7.234,3.66 9.261,7.125 2.098,3.578 2.668,7.942 1.563,11.942 -0.52,1.234 -1.039,2.468 -1.563,3.703 -1.375,2.332 -3.23,4.183 -5.558,5.562 -49.379,34.305 -98.762,68.61 -148.141,102.911 -52.008,36.128 -104.015,72.253 -156.019,108.382 -51.836,36.012 -103.672,72.02 -155.504,108.028 -2.927,2.032 -5.852,4.065 -8.778,6.097 -0.604,0.49 -1.25,0.938 -1.936,1.345 C 22.401,-8.828 17.172,-5.195 11.945,-1.562 9.822,-0.09 7.021,0.562 4.297,0.562 2.8,0.562 1.327,0.366 0,0" />
          </g>
          <g
             transform="translate(1002.0981,1419.3599)"
             id="g6667">
            <path
               inkscape:connector-curvature="0"
               id="path6669"
               style="fill:#f8df33;fill-opacity:1;fill-rule:nonzero;stroke:none"
               d="m 0,0 c -0.086,-0.016 -0.168,-0.027 -0.254,-0.043 -0.059,-0.01 -0.118,-0.021 -0.176,-0.033 -69.52,-12.287 -139.043,-24.57 -208.562,-36.854 -73.531,-12.996 -147.059,-25.988 -220.59,-38.984 -49.481,-8.745 -98.957,-17.487 -148.434,-26.231 -0.944,-0.079 -1.888,-0.246 -2.832,-0.5 -4.41,-0.781 -8.824,-1.558 -13.234,-2.339 -3.781,-0.668 -7.395,-3.926 -9.266,-7.121 -2.093,-3.583 -2.664,-7.946 -1.562,-11.946 1.066,-3.871 3.656,-7.234 7.125,-9.261 1.234,-0.524 2.469,-1.043 3.703,-1.563 2.746,-0.738 5.492,-0.738 8.238,0 3.969,0.699 7.936,1.401 11.905,2.104 68.11,12.037 136.216,24.07 204.326,36.107 73.66,13.016 147.324,26.035 220.984,39.051 51.255,9.055 102.514,18.115 153.769,27.175 0.949,0.079 1.899,0.246 2.848,0.501 0.082,0.015 0.168,0.031 0.25,0.046 3.782,0.668 7.395,3.926 9.266,7.121 2.094,3.583 2.664,7.946 1.562,11.946 C 18,-6.953 15.41,-3.59 11.941,-1.562 10.707,-1.039 9.473,-0.52 8.238,0 6.865,0.369 5.492,0.554 4.119,0.554 2.746,0.554 1.373,0.369 0,0" />
          </g>
          <g
             transform="translate(472.8638,1311.8364)"
             id="g6671">
            <path
               inkscape:connector-curvature="0"
               id="path6673"
               style="fill:#f8df33;fill-opacity:1;fill-rule:nonzero;stroke:none"
               d="m 0,0 c -3.871,-1.066 -7.234,-3.656 -9.262,-7.121 -4.187,-7.156 -1.828,-17.125 5.559,-21.207 6.242,-3.449 12.48,-6.899 18.719,-10.344 0.02,-0.011 0.04,-0.022 0.06,-0.033 48.37,-26.728 96.733,-53.449 145.1,-80.178 55.179,-30.496 110.359,-60.984 165.539,-91.472 53.879,-29.77 107.758,-59.543 161.633,-89.316 1.101,-0.609 2.199,-1.217 3.298,-1.824 0.033,-0.018 0.066,-0.037 0.1,-0.055 0.107,-0.06 0.215,-0.12 0.324,-0.179 0.01,-0.005 0.02,-0.011 0.03,-0.017 0.351,-0.194 0.701,-0.387 1.052,-0.581 0.038,-0.021 0.076,-0.043 0.114,-0.063 0.757,-0.418 1.511,-0.832 2.265,-1.25 3.672,-2.031 7.864,-2.688 11.946,-1.563 3.871,1.067 7.234,3.657 9.261,7.121 4.188,7.157 1.828,17.125 -5.558,21.207 -0.758,0.418 -1.512,0.836 -2.266,1.254 -0.059,0.033 -0.118,0.065 -0.177,0.097 -0.397,0.219 -0.795,0.439 -1.191,0.658 -0.05,0.029 -0.101,0.057 -0.151,0.085 -0.035,0.019 -0.07,0.038 -0.105,0.057 -0.005,0.003 -0.011,0.006 -0.017,0.009 -0.065,0.037 -0.131,0.072 -0.197,0.108 -53.044,29.31 -106.095,58.626 -159.139,87.935 -55.05,30.422 -110.101,60.84 -165.152,91.262 -53.309,29.454 -106.618,58.912 -159.927,88.37 -1.905,1.053 -3.81,2.106 -5.714,3.158 -0.545,0.301 -1.09,0.602 -1.634,0.903 -0.855,0.472 -1.71,0.944 -2.565,1.417 C 9.478,-0.198 6.776,0.546 4.031,0.546 2.69,0.546 1.339,0.369 0,0" />
          </g>
          <g
             transform="translate(943.4805,1340.0122)"
             id="g6675">
            <path
               inkscape:connector-curvature="0"
               id="path6677"
               style="fill:#f8df33;fill-opacity:1;fill-rule:nonzero;stroke:none"
               d="m 0,0 v -1.48 -183.602 -147.579 -1.48 -5.914 c 0,-8.449 7.051,-15.5 15.5,-15.5 8.449,0 15.5,7.051 15.5,15.5 v 7.394 190.724 V -1.48 0 C 31,8.449 23.949,15.5 15.5,15.5 7.051,15.5 0,8.449 0,0" />
          </g>
          <g
             transform="translate(1501.0244,1647.8818)"
             id="g6679">
            <path
               inkscape:connector-curvature="0"
               id="path6681"
               style="fill:#f8df33;fill-opacity:1;fill-rule:nonzero;stroke:none"
               d="m 0,0 c -56.988,-24.758 -113.984,-49.508 -170.969,-74.27 -58.051,-25.226 -116.105,-50.433 -174.156,-75.652 -50.844,-22.086 -101.691,-44.176 -152.539,-66.262 -1.043,-0.808 -2.09,-1.617 -3.137,-2.421 -1.918,-1.938 -3.25,-4.215 -3.984,-6.84 -1.102,-4.004 -0.531,-8.364 1.562,-11.946 2.028,-3.464 5.391,-6.054 9.262,-7.125 1.375,-0.183 2.75,-0.367 4.121,-0.55 2.797,0.007 5.406,0.711 7.824,2.113 57.223,24.859 114.442,49.719 171.664,74.574 58.098,25.234 116.184,50.477 174.282,75.707 47.895,20.798 95.79,41.608 143.684,62.413 1.163,0.347 2.287,0.835 3.372,1.464 1.553,0.675 3.11,1.351 4.662,2.025 1.043,0.809 2.09,1.618 3.137,2.422 1.918,1.938 3.25,4.215 3.985,6.84 1.101,4.004 0.531,8.363 -1.563,11.946 C 19.18,-2.098 15.816,0.496 11.945,1.562 10.57,1.746 9.195,1.93 7.824,2.113 5.027,2.105 2.418,1.398 0,0" />
          </g>
          <g
             transform="translate(1184.2139,1353.3354)"
             id="g6683">
            <path
               inkscape:connector-curvature="0"
               id="path6685"
               style="fill:#f8df33;fill-opacity:1;fill-rule:nonzero;stroke:none"
               d="m 0,0 c -3.469,-2.031 -6.059,-5.391 -7.125,-9.266 -1.102,-4 -0.531,-8.363 1.563,-11.941 1.89,-3.234 5.468,-6.406 9.265,-7.125 24.285,-4.609 48.57,-9.215 72.856,-13.824 1.371,-0.184 2.746,-0.367 4.121,-0.551 2.797,0.008 5.402,0.711 7.82,2.113 3.469,2.031 6.059,5.391 7.125,9.266 1.102,4 0.531,8.363 -1.562,11.941 -1.891,3.235 -5.469,6.407 -9.266,7.125 C 60.512,-7.652 36.227,-3.047 11.941,1.562 10.57,1.746 9.195,1.93 7.82,2.113 5.023,2.105 2.418,1.402 0,0" />
          </g>
          <g
             transform="translate(1153.9731,1344.2314)"
             id="g6687">
            <path
               inkscape:connector-curvature="0"
               id="path6689"
               style="fill:#f8df33;fill-opacity:1;fill-rule:nonzero;stroke:none"
               d="M 0,0 C 0,-8.449 7.051,-15.5 15.5,-15.5 23.949,-15.5 31,-8.449 31,0 31,8.449 23.949,15.5 15.5,15.5 7.051,15.5 0,8.449 0,0" />
          </g>
          <g
             transform="translate(1039.1172,1380.8633)"
             id="g6691">
            <path
               inkscape:connector-curvature="0"
               id="path6693"
               style="fill:#f8df33;fill-opacity:1;fill-rule:nonzero;stroke:none"
               d="m 0,0 c -3.469,-2.027 -6.059,-5.387 -7.125,-9.262 -1.102,-4 -0.531,-8.363 1.563,-11.945 1.89,-3.23 5.468,-6.402 9.261,-7.121 101.903,-19.332 203.805,-38.668 305.703,-58.004 106.676,-20.242 213.348,-40.481 320.024,-60.723 l 222.609,-42.234 c 1.371,-0.188 2.746,-0.371 4.121,-0.555 2.797,0.008 5.406,0.715 7.821,2.117 3.468,2.028 6.058,5.391 7.125,9.262 1.101,4 0.531,8.363 -1.563,11.945 -1.891,3.231 -5.469,6.403 -9.262,7.122 -99.851,18.945 -199.699,37.89 -299.547,56.835 C 454.613,-82.43 348.492,-62.297 242.379,-42.16 165.566,-27.582 88.754,-13.008 11.941,1.562 10.57,1.75 9.195,1.934 7.82,2.117 5.023,2.109 2.418,1.402 0,0" />
          </g>
          <g
             transform="translate(1887.9971,1225.0005)"
             id="g6695">
            <path
               inkscape:connector-curvature="0"
               id="path6697"
               style="fill:#f8df33;fill-opacity:1;fill-rule:nonzero;stroke:none"
               d="m 0,0 c -99.719,-19.402 -199.437,-38.805 -299.16,-58.207 -103.254,-20.09 -206.508,-40.18 -309.766,-60.273 -74.422,-14.481 -148.84,-28.957 -223.261,-43.438 -3.801,-0.738 -7.364,-3.879 -9.262,-7.125 -2.098,-3.578 -2.664,-7.941 -1.563,-11.941 1.067,-3.875 3.657,-7.235 7.121,-9.266 1.235,-0.52 2.469,-1.039 3.704,-1.562 2.746,-0.739 5.496,-0.739 8.242,0 101.316,19.714 202.636,39.425 303.957,59.14 103.504,20.141 207.004,40.281 310.508,60.418 72.574,14.117 145.148,28.242 217.722,42.359 3.801,0.739 7.363,3.879 9.262,7.125 2.098,3.579 2.664,7.942 1.562,11.942 C 18,-6.953 15.41,-3.594 11.945,-1.562 10.711,-1.043 9.477,-0.523 8.242,0 6.869,0.369 5.495,0.554 4.121,0.554 2.747,0.554 1.373,0.369 0,0" />
          </g>
          <g
             transform="translate(2269.6523,1562.0103)"
             id="g6699">
            <path
               inkscape:connector-curvature="0"
               id="path6701"
               style="fill:#f8df33;fill-opacity:1;fill-rule:nonzero;stroke:none"
               d="m 0,0 c -44.559,-39.66 -89.137,-79.293 -133.703,-118.938 -47.961,-42.664 -95.923,-85.328 -143.88,-127.992 -31.008,-27.586 -62.016,-55.168 -93.023,-82.75 -2.977,-2.644 -4.54,-7.07 -4.54,-10.961 0,-4.093 1.645,-8.066 4.54,-10.961 2.894,-2.894 6.863,-4.539 10.96,-4.539 4.293,0 7.817,1.746 10.958,4.539 48.074,42.762 96.14,85.528 144.215,128.29 47.891,42.597 95.778,85.199 143.668,127.8 27.575,24.532 55.157,49.055 82.723,73.59 2.973,2.649 4.539,7.067 4.539,10.961 0,4.094 -1.645,8.066 -4.539,10.961 C 19.023,2.895 15.055,4.539 10.957,4.539 6.664,4.539 3.137,2.793 0,0" />
          </g>
          <g
             transform="translate(1487.3125,1617.895)"
             id="g6703">
            <path
               inkscape:connector-curvature="0"
               id="path6705"
               style="fill:#f8df33;fill-opacity:1;fill-rule:nonzero;stroke:none"
               d="m 0,0 c -2.895,-2.895 -4.539,-6.867 -4.539,-10.961 0,-4.094 1.644,-8.066 4.539,-10.961 1.047,-0.805 2.094,-1.613 3.137,-2.422 2.418,-1.402 5.027,-2.109 7.824,-2.117 3.05,-0.23 6.105,-0.46 9.156,-0.69 8.21,-0.619 16.419,-1.239 24.629,-1.857 0.043,-0.003 0.086,-0.006 0.128,-0.008 52.683,-3.97 105.369,-7.943 158.048,-11.922 64.957,-4.902 129.918,-9.8 194.875,-14.699 32.991,-2.484 65.982,-4.974 98.972,-7.462 0.77,-0.116 1.555,-0.176 2.356,-0.178 l 10.734,-0.809 c 3.938,-0.297 8.246,1.824 10.961,4.539 2.895,2.895 4.539,6.867 4.539,10.961 0,4.094 -1.644,8.066 -4.539,10.961 -1.047,0.805 -2.093,1.613 -3.136,2.422 -2.418,1.402 -5.028,2.109 -7.825,2.117 -2.306,0.174 -4.609,0.348 -6.916,0.522 -0.767,0.116 -1.55,0.175 -2.349,0.177 l -0.097,0.008 c -61.579,4.646 -123.152,9.286 -184.731,13.93 -64.789,4.89 -129.582,9.777 -194.371,14.66 C 96.63,-1.923 71.86,-0.053 47.094,1.815 46.326,1.931 45.544,1.99 44.746,1.992 43.655,2.074 42.565,2.157 41.475,2.239 36.871,2.586 32.265,2.933 27.661,3.28 22.094,3.7 16.527,4.12 10.961,4.539 10.713,4.558 10.464,4.567 10.214,4.567 6.487,4.567 2.544,2.544 0,0" />
          </g>
          <g
             transform="translate(1929.166,1570.1934)"
             id="g6707">
            <path
               inkscape:connector-curvature="0"
               id="path6709"
               style="fill:#f8df33;fill-opacity:1;fill-rule:nonzero;stroke:none"
               d="m 0,0 c 0,-8.5 7.051,-15.434 15.5,-15.5 1.858,-0.015 3.717,-0.029 5.574,-0.043 62.254,-0.478 124.508,-0.959 186.758,-1.437 56.617,-0.43 113.238,-1 169.855,-1.305 8.45,-0.047 15.5,7.086 15.5,15.5 0,8.484 -7.05,15.453 -15.5,15.5 -61.734,0.332 -123.476,0.949 -185.21,1.426 -53.508,0.407 -107.012,0.821 -160.52,1.233 -0.038,0 -0.075,10e-4 -0.113,10e-4 -3.645,0.029 -7.287,0.056 -10.931,0.083 -1.804,0.014 -3.609,0.028 -5.413,0.042 -0.039,0 -0.078,0 -0.116,0 C 6.986,15.501 0,8.364 0,0" />
          </g>
          <g
             transform="translate(1959.3711,1865.6221)"
             id="g6711">
            <path
               inkscape:connector-curvature="0"
               id="path6713"
               style="fill:#f8df33;fill-opacity:1;fill-rule:nonzero;stroke:none"
               d="m 0,0 c -4.094,0 -8.066,-1.648 -10.961,-4.543 -2.894,-2.891 -4.539,-6.863 -4.539,-10.957 0.184,-1.375 0.367,-2.75 0.555,-4.121 0.734,-2.625 2.062,-4.906 3.984,-6.84 47.375,-38.805 94.758,-77.605 142.137,-116.406 50.054,-40.992 100.113,-81.981 150.164,-122.977 47.015,-38.511 94.039,-77.011 141.058,-115.519 1.047,-0.809 2.094,-1.617 3.137,-2.426 2.418,-1.402 5.027,-2.106 7.824,-2.117 4.094,0 8.067,1.648 10.961,4.543 2.895,2.89 4.539,6.863 4.539,10.957 -0.183,1.375 -0.367,2.75 -0.554,4.121 -0.735,2.625 -2.063,4.906 -3.985,6.84 -47.758,39.113 -95.515,78.222 -143.273,117.336 -50.059,40.996 -100.121,81.988 -150.176,122.988 -43.975,36.019 -87.953,72.024 -131.926,108.038 -0.004,0.004 -0.008,0.009 -0.011,0.013 -1.39,1.136 -2.779,2.273 -4.167,3.41 -1.269,1.039 -2.537,2.077 -3.806,3.117 C 9.914,-3.734 8.867,-2.926 7.824,-2.117 5.406,-0.715 2.797,-0.012 0,0" />
          </g>
          <g
             transform="translate(1916.1572,1828.8096)"
             id="g6715">
            <path
               inkscape:connector-curvature="0"
               id="path6717"
               style="fill:#f8df33;fill-opacity:1;fill-rule:nonzero;stroke:none"
               d="m 0,0 c -2.945,-2.945 -4.445,-6.824 -4.539,-10.961 -1.344,-61.203 -2.688,-122.406 -4.039,-183.605 -0.676,-30.496 -1.344,-60.993 -2.016,-91.489 -0.002,-0.07 -0.003,-0.138 -0.003,-0.208 -0.095,-4.343 -0.191,-8.683 -0.286,-13.026 -0.187,-8.449 7.192,-15.5 15.5,-15.5 4.094,0 8.067,1.644 10.961,4.539 2.945,2.945 4.449,6.824 4.539,10.961 0.097,4.421 0.195,8.838 0.291,13.26 0.002,0.024 0.002,0.049 0.002,0.072 0.001,0.073 0.002,0.145 0.003,0.217 1.358,61.703 2.714,123.404 4.075,185.107 0.66,29.891 1.317,59.781 1.973,89.672 0.187,8.449 -7.191,15.5 -15.5,15.5 C 6.867,4.539 2.895,2.895 0,0" />
          </g>
        </g>
      </g>
      <g
         id="g6719">
        <g
           clip-path="url(#clipPath6725)"
           id="g6721">
          <g
             transform="translate(1930.1865,1330.0356)"
             id="g6727">
            <path
               inkscape:connector-curvature="0"
               id="path6729"
               style="fill:#999999;fill-opacity:1;fill-rule:nonzero;stroke:none"
               d="m 0,0 c -4.706,0 -9.51,-0.259 -14.278,-0.77 -9.93,-1.061 -19.618,-3.182 -28.795,-6.305 -18.094,-6.154 -35.113,-16.497 -49.215,-29.908 -6.56,-6.24 -12.674,-13.471 -18.173,-21.49 -5.083,-7.411 -9.584,-15.869 -13.376,-25.139 -3.52,-8.612 -6.118,-17.827 -7.72,-27.388 -1.606,-9.597 -2.176,-19.273 -1.695,-28.761 0.059,-1.133 0.134,-2.176 0.231,-3.192 l 0.143,-1.065 c 0.21,-0.787 0.58,-1.423 1.109,-1.96 0.172,-0.172 0.361,-0.329 0.56,-0.47 0.548,-5.795 1.483,-11.594 2.777,-17.228 2.113,-9.204 5.357,-18.44 9.642,-27.451 3.853,-8.111 8.889,-16.197 14.966,-24.034 11.701,-15.091 27.048,-27.712 44.383,-36.495 8.525,-4.316 17.688,-7.749 27.236,-10.204 9.239,-2.376 19.049,-3.729 29.158,-4.023 1.177,-0.034 2.357,-0.052 3.534,-0.052 8.188,0 16.694,0.826 25.284,2.454 9.019,1.712 18.288,4.605 27.549,8.599 17.368,7.489 33.348,19.112 46.211,33.611 12.723,14.344 22.4,31.764 27.987,50.375 2.693,8.969 4.455,18.645 5.235,28.76 0.709,9.205 0.338,18.691 -1.133,28.998 -1.313,9.163 -3.754,18.418 -7.255,27.507 -3.501,9.089 -7.989,17.791 -13.341,25.861 -10.661,16.078 -25.07,29.985 -41.67,40.218 -7.923,4.883 -16.729,9.031 -26.174,12.329 -8.642,3.018 -18.191,5.16 -28.382,6.363 C 9.955,-0.29 4.976,0 0,0" />
          </g>
          <g
             transform="translate(2300.4482,1681.2466)"
             id="g6731">
            <path
               inkscape:connector-curvature="0"
               id="path6733"
               style="fill:#999999;fill-opacity:1;fill-rule:nonzero;stroke:none"
               d="m 0,0 c -7.474,0 -15.276,-0.652 -23.192,-1.938 -11.409,-1.855 -23.086,-5.533 -34.706,-10.93 -10.317,-4.786 -20.428,-11.322 -30.053,-19.427 -8.659,-7.295 -16.646,-16.152 -23.737,-26.327 -6.603,-9.473 -12.076,-20.274 -16.266,-32.1 -3.952,-11.163 -6.379,-23.348 -7.212,-36.217 -0.771,-11.932 0.187,-24.342 2.848,-36.886 2.423,-11.439 6.607,-22.905 12.434,-34.08 5.487,-10.516 12.64,-20.537 21.264,-29.784 8.045,-8.624 17.492,-16.295 28.08,-22.798 4.83,-2.969 10.111,-5.708 15.696,-8.141 5.909,-2.571 11.458,-4.572 16.966,-6.119 9.298,-2.609 19.245,-4.135 29.565,-4.535 1.679,-0.064 3.373,-0.096 5.031,-0.096 3.181,0 6.355,0.119 9.431,0.354 1.122,0.086 2.239,0.188 3.36,0.305 10.506,0.75 20.878,2.716 30.83,5.844 11.403,3.583 22.367,8.774 32.585,15.431 20.572,13.396 37.123,32.198 47.862,54.375 10.658,22.014 15.055,46.6 12.717,71.099 -1.193,12.493 -3.996,24.549 -8.329,35.831 -4.321,11.246 -10.128,21.83 -17.259,31.455 -3.81,5.143 -7.928,9.992 -12.239,14.412 -4.143,4.243 -8.818,8.359 -14.294,12.582 -4.646,3.581 -9.576,6.887 -14.654,9.829 -4.925,2.848 -10.492,5.534 -17.017,8.212 -5.323,2.182 -11.081,4.065 -17.114,5.594 -5.534,1.403 -11.592,2.471 -18.526,3.266 C 9.493,-0.266 4.759,0 0,0" />
          </g>
          <g
             transform="translate(1923.0322,1690.2661)"
             id="g6735">
            <path
               inkscape:connector-curvature="0"
               id="path6737"
               style="fill:#999999;fill-opacity:1;fill-rule:nonzero;stroke:none"
               d="m 0,0 c -4.228,0 -8.528,-0.207 -12.786,-0.613 -9.784,-0.931 -19.386,-2.905 -28.537,-5.868 -8.969,-2.902 -17.764,-6.848 -26.139,-11.727 -8.029,-4.675 -15.784,-10.415 -23.049,-17.061 -6.76,-6.183 -13.108,-13.428 -18.869,-21.532 -5.39,-7.585 -10.087,-16.097 -13.962,-25.299 -3.694,-8.771 -6.436,-17.946 -8.152,-27.272 -3.553,-19.327 -2.801,-39.629 2.176,-58.711 2.341,-8.982 5.818,-18.037 10.333,-26.912 4.129,-8.121 9.443,-16.194 15.797,-23.998 5.816,-7.14 12.535,-13.759 19.97,-19.674 7.656,-6.082 15.793,-11.262 24.186,-15.395 8.647,-4.257 17.74,-7.58 27.025,-9.876 9.252,-2.29 19.083,-3.582 29.221,-3.84 1.011,-0.026 2.022,-0.038 3.033,-0.038 8.401,0 17.209,0.888 26.177,2.64 8.993,1.761 17.979,4.616 27.471,8.727 8.478,3.674 16.732,8.412 24.533,14.083 7.741,5.624 14.838,12 21.091,18.95 6.328,7.035 11.951,14.82 16.712,23.139 2.16,3.77 4.186,7.873 6.196,12.544 2.104,4.887 3.8,9.473 5.183,14.021 2.762,9.066 4.547,18.905 5.306,29.244 0.037,0.48 -0.049,0.994 -0.255,1.528 l 0.06,0.804 c 1.344,19.216 -1.632,38.863 -8.611,56.817 -6.947,17.877 -17.787,34.336 -31.349,47.597 -6.52,6.375 -13.938,12.216 -22.049,17.361 -7.715,4.893 -16.342,9.099 -25.639,12.501 -4.316,1.577 -8.967,2.972 -13.821,4.149 -4.503,1.087 -9.287,1.94 -15.056,2.684 C 10.934,-0.346 5.484,0 0,0" />
          </g>
          <g
             transform="translate(1911.8877,2003.9146)"
             id="g6739">
            <path
               inkscape:connector-curvature="0"
               id="path6741"
               style="fill:#999999;fill-opacity:1;fill-rule:nonzero;stroke:none"
               d="m 0,0 v 0 h -0.605 c -8.284,0 -16.909,-0.841 -25.635,-2.5 -8.178,-1.556 -16.394,-4.005 -24.42,-7.282 -8.23,-3.357 -16.008,-7.427 -23.119,-12.099 -7.066,-4.635 -13.8,-10.04 -20.017,-16.063 -5.83,-5.64 -11.382,-12.181 -16.502,-19.443 -4.691,-6.653 -8.82,-13.95 -12.27,-21.689 -3.639,-8.164 -6.452,-16.549 -8.36,-24.924 -1.927,-8.447 -3.034,-17.289 -3.29,-26.279 -0.242,-8.605 0.438,-17.657 2.021,-26.905 1.424,-8.329 3.77,-16.721 6.976,-24.943 3.212,-8.235 7.189,-16.112 11.822,-23.412 4.466,-7.041 9.722,-13.806 15.622,-20.107 5.495,-5.868 11.927,-11.513 19.119,-16.778 6.572,-4.808 13.785,-9.065 21.438,-12.654 7.867,-3.686 16.052,-6.605 24.326,-8.676 6.953,-1.74 14.28,-2.92 21.78,-3.508 3.67,-0.287 7.295,-0.325 10.357,-0.325 L 0,-267.586 c 0.685,0 1.38,0.064 2.053,0.125 l 0.608,0.054 c 0.512,0.042 1.025,0.066 1.537,0.089 0.357,0.017 0.713,0.033 1.068,0.056 1.682,0.107 3.491,0.264 5.692,0.496 0.371,0.047 0.746,0.098 1.121,0.148 0.465,0.129 0.897,0.331 1.282,0.6 6.352,0.646 12.774,1.779 19.082,3.365 15.745,3.952 31.229,11.184 44.778,20.916 6.883,4.948 13.304,10.545 19.083,16.634 5.745,6.057 11.064,12.874 15.809,20.263 4.375,6.82 8.273,14.486 11.583,22.783 3.069,7.692 5.412,15.924 6.97,24.467 1.641,9.009 2.378,17.978 2.191,26.658 -0.183,8.597 -1.234,17.38 -3.121,26.107 -1.737,8.04 -4.372,16.12 -8.055,24.701 -3.198,7.436 -7.259,14.775 -12.072,21.811 -4.798,7.005 -10.267,13.581 -16.255,19.544 -5.822,5.8 -12.463,11.248 -19.74,16.193 -6.765,4.597 -14.142,8.601 -21.923,11.903 -4.399,1.866 -8.505,3.393 -12.555,4.669 -3.919,1.235 -8.077,2.312 -12.361,3.199 C 18.05,-0.991 9.042,-0.047 0,0" />
          </g>
          <g
             transform="translate(1465.8721,1746.2861)"
             id="g6743">
            <path
               inkscape:connector-curvature="0"
               id="path6745"
               style="fill:#999999;fill-opacity:1;fill-rule:nonzero;stroke:none"
               d="m 0,0 c -9.418,0 -19.11,-1.065 -28.807,-3.168 -10.821,-2.346 -21.656,-6.271 -32.206,-11.665 -4.713,-2.405 -9.522,-5.285 -14.294,-8.559 -2.513,-1.73 -4.925,-3.573 -6.747,-4.985 -2.336,-1.811 -4.341,-3.496 -6.129,-5.149 -2.002,-1.851 -3.799,-3.528 -5.528,-5.289 -0.934,-0.957 -1.848,-1.93 -2.754,-2.914 -0.784,-0.849 -1.497,-1.761 -2.16,-2.623 -0.418,-0.491 -0.828,-0.983 -1.234,-1.48 -0.615,-0.736 -1.244,-1.668 -1.253,-2.99 -14.625,-17.343 -24.621,-38.007 -28.906,-59.752 -0.967,-4.896 -1.704,-10.231 -2.25,-16.31 -0.457,-5.097 -0.521,-10.594 -0.195,-16.802 0.584,-11.188 2.647,-22.375 6.129,-33.249 1.628,-5.089 3.7,-10.303 6.333,-15.939 2.317,-4.963 5.091,-9.975 8.242,-14.895 6.068,-9.454 13.359,-18.144 21.67,-25.826 8.26,-7.636 17.508,-14.238 27.486,-19.623 9.824,-5.296 20.5,-9.357 31.733,-12.071 9.943,-2.4 20.278,-3.617 30.719,-3.617 12.562,0 25.056,1.746 37.134,5.187 10.739,3.064 21.247,7.622 31.233,13.548 9.398,5.577 18.216,12.465 26.205,20.475 3.699,3.71 7.339,7.906 11.126,12.829 3.266,4.252 6.319,8.776 9.075,13.446 5.898,10.005 10.5,20.749 13.681,31.932 6.109,21.506 6.587,44.654 1.379,66.943 -5.078,21.75 -16.025,42.33 -31.656,59.516 C 82.709,-26.191 62.858,-13.489 40.62,-6.297 29.888,-2.825 18.287,-0.758 6.141,-0.152 4.104,-0.051 2.037,0 0,0" />
          </g>
          <g
             transform="translate(966.833,1154.4268)"
             id="g6747">
            <path
               inkscape:connector-curvature="0"
               id="path6749"
               style="fill:#999999;fill-opacity:1;fill-rule:nonzero;stroke:none"
               d="m 0,0 v 0 h -0.488 c -6.173,0 -12.837,-0.525 -20.373,-1.605 -13.182,-1.893 -26.517,-6.107 -39.636,-12.525 -11.852,-5.8 -23.119,-13.72 -33.486,-23.54 -9.901,-9.381 -18.377,-20.447 -25.194,-32.89 -3.297,-6.02 -6.3,-12.794 -8.927,-20.134 -2.211,-6.188 -3.989,-12.919 -5.285,-20.005 -2.528,-13.831 -2.932,-27.848 -1.199,-41.663 0.895,-7.137 2.282,-14.075 4.121,-20.619 1.778,-6.324 4.234,-12.879 7.509,-20.04 5.52,-12.087 13.242,-23.634 22.95,-34.32 4.479,-4.936 9.596,-9.704 15.209,-14.169 5.665,-4.508 11.581,-8.537 17.583,-11.977 5.257,-3.01 11.163,-5.801 18.056,-8.532 5.986,-2.371 12.433,-4.333 19.161,-5.833 6.417,-1.434 13.24,-2.406 20.279,-2.886 1.765,-0.119 3.548,-0.174 5.212,-0.215 0.286,-0.007 0.572,-0.01 0.859,-0.01 0.677,0 1.355,0.016 2.032,0.032 0.642,0.016 1.285,0.031 1.929,0.033 3.102,0.011 6.171,0.419 9.048,0.836 6.729,0.483 13.576,1.49 20.349,2.992 13.527,3.002 26.739,8.313 39.269,15.786 5.568,3.324 11.151,7.309 17.067,12.184 4.953,4.08 9.816,8.797 14.455,14.021 9.217,10.384 16.726,22.06 22.317,34.706 2.871,6.479 5.234,13.153 7.024,19.837 1.693,6.299 2.938,13.117 3.805,20.846 1.464,13.031 0.822,26.803 -1.906,40.932 -2.582,13.382 -7.337,26.477 -14.134,38.921 -3.305,6.056 -7.262,12.004 -12.098,18.185 -4.141,5.297 -8.65,10.275 -13.404,14.794 -4.656,4.434 -10.033,8.809 -15.981,13.005 -5.193,3.661 -10.901,7.032 -16.967,10.02 C 46.834,-7.756 33.726,-3.642 20.196,-1.605 13.323,-0.57 6.528,-0.03 0,0" />
          </g>
          <g
             transform="translate(955.0127,1521.6992)"
             id="g6751">
            <path
               inkscape:connector-curvature="0"
               id="path6753"
               style="fill:#999999;fill-opacity:1;fill-rule:nonzero;stroke:none"
               d="m 0,0 c -6.3,0 -12.798,-0.461 -19.314,-1.372 -22.04,-3.065 -43.182,-11.736 -61.138,-25.075 -8.994,-6.683 -17.049,-14.353 -23.939,-22.795 -7.103,-8.698 -13.048,-18.112 -17.673,-27.979 -4.806,-10.266 -8.289,-20.987 -10.353,-31.865 -2.116,-11.17 -2.84,-22.529 -2.152,-33.761 0.671,-10.864 2.644,-21.605 5.864,-31.924 1.493,-4.778 3.425,-9.813 5.907,-15.392 2.071,-4.66 4.579,-9.434 7.453,-14.189 2.619,-4.332 5.668,-8.696 9.595,-13.735 3.041,-3.899 6.52,-7.82 10.34,-11.653 2.718,-2.729 5.774,-5.469 9.083,-8.145 8.369,-7.06 17.363,-13.018 26.732,-17.708 10.182,-5.103 20.941,-8.861 31.975,-11.169 5.406,-1.131 11.281,-1.962 17.463,-2.469 3.335,-0.273 6.772,-0.412 10.215,-0.412 2.157,0 4.364,0.055 6.559,0.162 11.396,0.559 22.643,2.514 33.429,5.813 5.152,1.577 10.514,3.634 16.392,6.289 4.805,2.167 9.683,4.772 14.497,7.743 4.36,2.689 8.925,5.949 13.958,9.966 4.072,3.25 8.012,6.856 12.047,11.024 3.583,3.703 7.09,7.855 11.037,13.067 3.139,4.143 6.07,8.602 8.961,13.634 2.627,4.568 5.095,9.632 7.543,15.482 2.079,4.963 3.889,10.2 5.38,15.567 2.875,10.37 4.458,21.589 4.703,33.347 0.23,11.044 -0.98,22.368 -3.593,33.658 -2.361,10.21 -6.192,20.531 -11.388,30.678 -4.89,9.555 -11.269,18.853 -18.958,27.635 -6.964,7.946 -15.299,15.31 -24.776,21.889 -8.655,6.011 -18.537,11.15 -29.373,15.274 C 36.641,-4.674 25.7,-2.103 13.958,-0.773 9.404,-0.26 4.708,0 0,0" />
          </g>
          <g
             transform="translate(460.9268,1432.0977)"
             id="g6755">
            <path
               inkscape:connector-curvature="0"
               id="path6757"
               style="fill:#999999;fill-opacity:1;fill-rule:nonzero;stroke:none"
               d="m 0,0 c -9.367,0 -18.793,-0.978 -28.018,-2.907 -19.274,-4.027 -37.913,-12.736 -53.902,-25.185 -15.914,-12.389 -29.009,-28.528 -37.871,-46.672 -8.829,-18.069 -13.477,-38.357 -13.442,-58.668 0.019,-10.118 1.236,-20.394 3.618,-30.542 2.235,-9.534 5.745,-19.168 10.434,-28.634 4.251,-8.588 9.804,-17.105 16.505,-25.315 6.081,-7.443 13.217,-14.358 21.209,-20.552 8.224,-6.374 17.081,-11.736 26.326,-15.939 9.588,-4.357 19.589,-7.555 29.725,-9.504 8.29,-1.595 16.803,-2.403 25.301,-2.403 12.273,0 24.453,1.665 36.203,4.949 9.648,2.695 19.206,6.638 28.409,11.72 8.48,4.684 16.704,10.56 24.443,17.466 7.236,6.459 14.029,14.159 20.189,22.885 5.647,7.997 10.57,17.154 14.634,27.217 3.851,9.535 6.552,19.724 8.028,30.283 0.783,5.599 1.234,11.151 1.34,16.502 0.049,2.581 0.011,5.278 -0.113,8.016 -0.067,1.406 -0.164,2.808 -0.274,4.211 -0.051,0.602 -0.105,1.199 -0.172,1.793 -0.093,0.813 -0.267,1.565 -0.451,2.362 l -0.092,0.397 c -0.06,0.266 -0.159,0.534 -0.294,0.795 -0.383,3.4 -0.907,6.878 -1.557,10.334 -1.756,9.328 -4.758,18.884 -8.923,28.404 -3.924,8.978 -8.994,17.641 -15.067,25.749 -5.997,8.009 -12.749,15.232 -20.068,21.466 C 70.819,-18.745 52.391,-9.187 32.827,-4.129 22.237,-1.394 11.193,-0.004 0,0" />
          </g>
          <g
             transform="translate(462.5693,1796.3906)"
             id="g6759">
            <path
               inkscape:connector-curvature="0"
               id="path6761"
               style="fill:#999999;fill-opacity:1;fill-rule:nonzero;stroke:none"
               d="m 0,0 c -8.189,0 -16.597,-0.78 -24.99,-2.317 -5.039,-0.924 -10.022,-2.167 -14.81,-3.695 -4.575,-1.466 -9.282,-3.263 -14.388,-5.497 -18.809,-8.227 -35.812,-21.275 -49.171,-37.733 -6.891,-8.487 -12.68,-17.686 -17.204,-27.342 -4.545,-9.692 -7.903,-19.881 -9.982,-30.284 -1.263,-6.316 -2.071,-12.792 -2.402,-19.247 -0.237,-3.511 -0.318,-7.149 -0.242,-10.813 0.122,-5.899 0.679,-11.957 1.703,-18.521 l -0.019,0.172 c 0.613,-4.238 1.573,-8.406 2.441,-11.954 0.846,-3.453 1.997,-7.19 3.621,-11.763 2.96,-8.321 6.849,-16.491 11.559,-24.283 5.956,-9.656 12.91,-18.382 20.647,-25.944 7.568,-7.399 16.193,-13.978 25.634,-19.555 9.225,-5.452 19.34,-9.809 30.065,-12.951 4.965,-1.45 10.221,-2.616 15.622,-3.465 5.645,-0.888 11.243,-1.436 16.638,-1.629 1.494,-0.054 3.015,-0.081 4.52,-0.081 8.995,0 18.24,0.965 27.479,2.87 4.898,1.009 9.909,2.396 15.318,4.243 4.584,1.563 9.35,3.55 14.997,6.254 9.012,4.318 18.056,10.157 26.881,17.353 7.729,6.303 15.036,13.972 21.72,22.795 12.773,16.852 21.354,36.907 24.814,57.996 3.159,19.225 1.965,39.462 -3.453,58.524 -5.597,19.704 -16.015,38.324 -30.127,53.848 -6.548,7.204 -14.207,13.86 -22.764,19.783 -8.284,5.734 -17.644,10.632 -27.822,14.559 -11.998,4.628 -24.723,7.446 -37.824,8.376 -0.12,0.016 -0.245,0.028 -0.367,0.035 -0.605,0.039 -1.211,0.071 -1.82,0.102 -0.093,0.012 -0.191,0.019 -0.285,0.023 -0.637,0.028 -1.274,0.051 -1.91,0.075 L 3.97,-0.061 3.336,-0.041 2.797,-0.027 2.281,-0.016 H 2.16 C 1.437,-0.004 0.719,0 0,0" />
          </g>
        </g>
      </g>
    </g>
    <text
       xml:space="preserve"
       style="font-style:normal;font-weight:normal;font-size:10.58333302px;line-height:1.25;font-family:sans-serif;letter-spacing:0px;word-spacing:0px;fill:#000000;fill-opacity:1;stroke:none;stroke-width:0.26458332"
       x="25.702381"
       y="15.785715"
       id="text7586"><tspan
         sodipodi:role="line"
         id="tspan7584"
         x="25.702381"
         y="15.785715"
         style="font-size:4.23333311px;stroke-width:0.26458332">genotype</tspan></text>
    <text
       xml:space="preserve"
       style="font-style:normal;font-weight:normal;font-size:10.58333302px;line-height:1.25;font-family:sans-serif;letter-spacing:0px;word-spacing:0px;fill:#000000;fill-opacity:1;stroke:none;stroke-width:0.26458332"
       x="169.69626"
       y="35.462471"
       id="text7586-1"><tspan
         sodipodi:role="line"
         id="tspan7584-8"
         x="169.69626"
         y="35.462471"
         style="font-size:4.23333311px;stroke-width:0.26458332">final phenotype</tspan></text>
  </g>
</svg>
